<svg width="289" height="289" viewBox="0 0 289 289" fill="none" xmlns="http://www.w3.org/2000/svg">
<g filter="url(#filter0_d)">
<path fill-rule="evenodd" clip-rule="evenodd" d="M281 0H0V281H281V0ZM261.768 19.2319H20.3004V260.7H261.768V19.2319Z" fill="#5C9991" fill-opacity="0.8"/>
<path d="M50.08 201.16C55.6 201.16 59.62 202.36 62.14 204.76C64.7 207.12 65.98 210.38 65.98 214.54C65.98 217.02 65.46 219.36 64.42 221.56C63.38 223.72 61.64 225.46 59.2 226.78C56.8 228.1 53.52 228.76 49.36 228.76H45.46V244H36.4V201.16H50.08ZM49.6 208.6H45.46V221.32H48.46C51.02 221.32 53.04 220.82 54.52 219.82C56.04 218.78 56.8 217.12 56.8 214.84C56.8 210.68 54.4 208.6 49.6 208.6Z" fill="#5C9991" fill-opacity="0.8"/>
<path d="M108.936 228.88C108.936 231.84 108.276 234.52 106.956 236.92C105.676 239.28 103.716 241.16 101.076 242.56C98.4758 243.92 95.1758 244.6 91.1758 244.6C85.4958 244.6 81.1758 243.16 78.2158 240.28C75.2558 237.36 73.7758 233.52 73.7758 228.76V201.16H82.8358V227.38C82.8358 230.9 83.5558 233.38 84.9958 234.82C86.4358 236.26 88.5758 236.98 91.4158 236.98C94.3758 236.98 96.5158 236.2 97.8358 234.64C99.1958 233.08 99.8758 230.64 99.8758 227.32V201.16H108.936V228.88Z" fill="#5C9991" fill-opacity="0.8"/>
<path d="M132.747 201.16C138.467 201.16 142.787 201.96 145.707 203.56C148.627 205.16 150.087 207.98 150.087 212.02C150.087 214.46 149.507 216.52 148.347 218.2C147.227 219.88 145.607 220.9 143.487 221.26V221.56C144.927 221.84 146.227 222.34 147.387 223.06C148.547 223.78 149.467 224.82 150.147 226.18C150.827 227.54 151.167 229.34 151.167 231.58C151.167 235.46 149.767 238.5 146.967 240.7C144.167 242.9 140.327 244 135.447 244H119.427V201.16H132.747ZM133.767 218.14C136.407 218.14 138.227 217.72 139.227 216.88C140.267 216.04 140.787 214.82 140.787 213.22C140.787 211.58 140.187 210.4 138.987 209.68C137.787 208.96 135.887 208.6 133.287 208.6H128.487V218.14H133.767ZM128.487 225.34V236.5H134.427C137.147 236.5 139.047 235.98 140.127 234.94C141.207 233.86 141.747 232.44 141.747 230.68C141.747 229.08 141.187 227.8 140.067 226.84C138.987 225.84 137.007 225.34 134.127 225.34H128.487Z" fill="#5C9991" fill-opacity="0.8"/>
<path d="M159.74 244V201.16H168.8V236.5H186.2V244H159.74Z" fill="#5C9991" fill-opacity="0.8"/>
<path d="M209.686 244H190.186V238.84L195.406 236.44V208.72L190.186 206.32V201.16H209.686V206.32L204.466 208.72V236.44L209.686 238.84V244Z" fill="#5C9991" fill-opacity="0.8"/>
<path d="M235.166 208.12C231.686 208.12 229.026 209.42 227.186 212.02C225.346 214.62 224.426 218.18 224.426 222.7C224.426 227.26 225.266 230.8 226.946 233.32C228.666 235.8 231.406 237.04 235.166 237.04C236.926 237.04 238.666 236.84 240.386 236.44C242.146 236.04 244.046 235.48 246.086 234.76V242.38C244.206 243.14 242.346 243.7 240.506 244.06C238.666 244.42 236.606 244.6 234.326 244.6C229.926 244.6 226.286 243.7 223.406 241.9C220.566 240.06 218.466 237.5 217.106 234.22C215.746 230.9 215.066 227.04 215.066 222.64C215.066 218.32 215.846 214.5 217.406 211.18C218.966 207.86 221.226 205.26 224.186 203.38C227.186 201.5 230.846 200.56 235.166 200.56C237.286 200.56 239.406 200.84 241.526 201.4C243.686 201.92 245.746 202.64 247.706 203.56L244.766 210.94C243.166 210.18 241.546 209.52 239.906 208.96C238.306 208.4 236.726 208.12 235.166 208.12Z" fill="#5C9991" fill-opacity="0.8"/>
<path d="M75 145.16L60.42 188H50.52L36 145.16H45.18L53.22 170.66C53.38 171.1 53.6 171.92 53.88 173.12C54.2 174.28 54.52 175.52 54.84 176.84C55.16 178.12 55.38 179.2 55.5 180.08C55.62 179.2 55.82 178.12 56.1 176.84C56.42 175.52 56.74 174.28 57.06 173.12C57.38 171.92 57.6 171.1 57.72 170.66L65.82 145.16H75Z" fill="#5C9991" fill-opacity="0.8"/>
<path d="M96.4434 188H76.9434V182.84L82.1634 180.44V152.72L76.9434 150.32V145.16H96.4434V150.32L91.2234 152.72V180.44L96.4434 182.84V188Z" fill="#5C9991" fill-opacity="0.8"/>
<path d="M121.924 152.12C118.444 152.12 115.784 153.42 113.944 156.02C112.104 158.62 111.184 162.18 111.184 166.7C111.184 171.26 112.024 174.8 113.704 177.32C115.424 179.8 118.164 181.04 121.924 181.04C123.684 181.04 125.424 180.84 127.144 180.44C128.904 180.04 130.804 179.48 132.844 178.76V186.38C130.964 187.14 129.104 187.7 127.264 188.06C125.424 188.42 123.364 188.6 121.084 188.6C116.684 188.6 113.044 187.7 110.164 185.9C107.324 184.06 105.224 181.5 103.864 178.22C102.504 174.9 101.824 171.04 101.824 166.64C101.824 162.32 102.604 158.5 104.164 155.18C105.724 151.86 107.984 149.26 110.944 147.38C113.944 145.5 117.604 144.56 121.924 144.56C124.044 144.56 126.164 144.84 128.284 145.4C130.444 145.92 132.504 146.64 134.464 147.56L131.524 154.94C129.924 154.18 128.304 153.52 126.664 152.96C125.064 152.4 123.484 152.12 121.924 152.12Z" fill="#5C9991" fill-opacity="0.8"/>
<path d="M48.88 88.16C54.72 88.16 59.02 89.22 61.78 91.34C64.58 93.46 65.98 96.68 65.98 101C65.98 102.96 65.6 104.68 64.84 106.16C64.12 107.6 63.14 108.84 61.9 109.88C60.7 110.88 59.4 111.7 58 112.34L70.6 131H60.52L50.32 114.56H45.46V131H36.4V88.16H48.88ZM48.22 95.6H45.46V107.18H48.4C51.4 107.18 53.54 106.68 54.82 105.68C56.14 104.68 56.8 103.2 56.8 101.24C56.8 99.2 56.1 97.76 54.7 96.92C53.34 96.04 51.18 95.6 48.22 95.6Z" fill="#5C9991" fill-opacity="0.8"/>
<path d="M114.889 109.52C114.889 113.96 114.149 117.84 112.669 121.16C111.229 124.44 109.009 127 106.009 128.84C103.009 130.68 99.1694 131.6 94.4894 131.6C89.8494 131.6 86.0094 130.68 82.9694 128.84C79.9694 127 77.7294 124.42 76.2494 121.1C74.8094 117.78 74.0894 113.9 74.0894 109.46C74.0894 105.02 74.8094 101.16 76.2494 97.88C77.7294 94.6 79.9694 92.06 82.9694 90.26C86.0094 88.42 89.8694 87.5 94.5494 87.5C99.1894 87.5 103.009 88.42 106.009 90.26C109.009 92.06 111.229 94.62 112.669 97.94C114.149 101.22 114.889 105.08 114.889 109.52ZM83.6294 109.52C83.6294 114 84.4894 117.54 86.2094 120.14C87.9294 122.7 90.6894 123.98 94.4894 123.98C98.3694 123.98 101.149 122.7 102.829 120.14C104.509 117.54 105.349 114 105.349 109.52C105.349 105 104.509 101.46 102.829 98.9C101.149 96.34 98.3894 95.06 94.5494 95.06C90.7094 95.06 87.9294 96.34 86.2094 98.9C84.4894 101.46 83.6294 105 83.6294 109.52Z" fill="#5C9991" fill-opacity="0.8"/>
<path d="M136.497 105.8L145.437 88.16H155.217L140.997 114.32V131H131.997V114.62L117.777 88.16H127.617L136.497 105.8Z" fill="#5C9991" fill-opacity="0.8"/>
<path d="M183.265 131L180.145 120.8H164.545L161.425 131H151.645L166.765 87.98H177.865L193.045 131H183.265ZM174.865 103.22C174.665 102.54 174.405 101.68 174.085 100.64C173.765 99.6 173.445 98.54 173.125 97.46C172.805 96.38 172.545 95.44 172.345 94.64C172.145 95.44 171.865 96.44 171.505 97.64C171.185 98.8 170.865 99.92 170.545 101C170.265 102.04 170.045 102.78 169.885 103.22L166.825 113.18H177.985L174.865 103.22Z" fill="#5C9991" fill-opacity="0.8"/>
<path d="M198.47 131V88.16H207.53V123.5H224.93V131H198.47Z" fill="#5C9991" fill-opacity="0.8"/>
<path d="M152.736 188H149.16V170.864H158.976V173.84H152.736V178.256H158.544V181.232H152.736V188Z" fill="#5C9991" fill-opacity="0.8"/>
<path d="M177.884 179.408C177.884 181.184 177.588 182.736 176.996 184.064C176.42 185.376 175.532 186.4 174.332 187.136C173.132 187.872 171.596 188.24 169.724 188.24C167.868 188.24 166.332 187.872 165.116 187.136C163.916 186.4 163.02 185.368 162.428 184.04C161.852 182.712 161.564 181.16 161.564 179.384C161.564 177.608 161.852 176.064 162.428 174.752C163.02 173.44 163.916 172.424 165.116 171.704C166.332 170.968 167.876 170.6 169.748 170.6C171.604 170.6 173.132 170.968 174.332 171.704C175.532 172.424 176.42 173.448 176.996 174.776C177.588 176.088 177.884 177.632 177.884 179.408ZM165.38 179.408C165.38 181.2 165.724 182.616 166.412 183.656C167.1 184.68 168.204 185.192 169.724 185.192C171.276 185.192 172.388 184.68 173.06 183.656C173.732 182.616 174.068 181.2 174.068 179.408C174.068 177.6 173.732 176.184 173.06 175.16C172.388 174.136 171.284 173.624 169.748 173.624C168.212 173.624 167.1 174.136 166.412 175.16C165.724 176.184 165.38 177.6 165.38 179.408Z" fill="#5C9991" fill-opacity="0.8"/>
<path d="M186.425 170.864C188.761 170.864 190.481 171.288 191.585 172.136C192.705 172.984 193.265 174.272 193.265 176C193.265 176.784 193.113 177.472 192.809 178.064C192.521 178.64 192.129 179.136 191.633 179.552C191.153 179.952 190.633 180.28 190.073 180.536L195.113 188H191.081L187.001 181.424H185.057V188H181.433V170.864H186.425ZM186.161 173.84H185.057V178.472H186.233C187.433 178.472 188.289 178.272 188.801 177.872C189.329 177.472 189.593 176.88 189.593 176.096C189.593 175.28 189.313 174.704 188.753 174.368C188.209 174.016 187.345 173.84 186.161 173.84Z" fill="#5C9991" fill-opacity="0.8"/>
<path d="M210.112 188H206.488V173.888H201.832V170.864H214.768V173.888H210.112V188Z" fill="#5C9991" fill-opacity="0.8"/>
<path d="M231.45 188H227.826V180.608H221.034V188H217.41V170.864H221.034V177.584H227.826V170.864H231.45V188Z" fill="#5C9991" fill-opacity="0.8"/>
<path d="M245.626 188H235.762V170.864H245.626V173.84H239.386V177.608H245.194V180.584H239.386V185H245.626V188Z" fill="#5C9991" fill-opacity="0.8"/>
<path d="M154.632 144.864C156.84 144.864 158.448 145.344 159.456 146.304C160.48 147.248 160.992 148.552 160.992 150.216C160.992 151.208 160.784 152.144 160.368 153.024C159.952 153.888 159.256 154.584 158.28 155.112C157.32 155.64 156.008 155.904 154.344 155.904H152.784V162H149.16V144.864H154.632ZM154.44 147.84H152.784V152.928H153.984C155.008 152.928 155.816 152.728 156.408 152.328C157.016 151.912 157.32 151.248 157.32 150.336C157.32 148.672 156.36 147.84 154.44 147.84Z" fill="#5C9991" fill-opacity="0.8"/>
<path d="M179.782 153.408C179.782 155.184 179.486 156.736 178.894 158.064C178.318 159.376 177.43 160.4 176.23 161.136C175.03 161.872 173.494 162.24 171.622 162.24C169.766 162.24 168.23 161.872 167.014 161.136C165.814 160.4 164.918 159.368 164.326 158.04C163.75 156.712 163.462 155.16 163.462 153.384C163.462 151.608 163.75 150.064 164.326 148.752C164.918 147.44 165.814 146.424 167.014 145.704C168.23 144.968 169.774 144.6 171.646 144.6C173.502 144.6 175.03 144.968 176.23 145.704C177.43 146.424 178.318 147.448 178.894 148.776C179.486 150.088 179.782 151.632 179.782 153.408ZM167.278 153.408C167.278 155.2 167.622 156.616 168.31 157.656C168.998 158.68 170.102 159.192 171.622 159.192C173.174 159.192 174.286 158.68 174.958 157.656C175.63 156.616 175.966 155.2 175.966 153.408C175.966 151.6 175.63 150.184 174.958 149.16C174.286 148.136 173.182 147.624 171.646 147.624C170.11 147.624 168.998 148.136 168.31 149.16C167.622 150.184 167.278 151.6 167.278 153.408Z" fill="#5C9991" fill-opacity="0.8"/>
<path d="M197.276 155.952C197.276 157.136 197.012 158.208 196.484 159.168C195.972 160.112 195.188 160.864 194.132 161.424C193.092 161.968 191.772 162.24 190.172 162.24C187.9 162.24 186.172 161.664 184.988 160.512C183.804 159.344 183.212 157.808 183.212 155.904V144.864H186.836V155.352C186.836 156.76 187.124 157.752 187.7 158.328C188.276 158.904 189.132 159.192 190.268 159.192C191.452 159.192 192.308 158.88 192.836 158.256C193.38 157.632 193.652 156.656 193.652 155.328V144.864H197.276V155.952Z" fill="#5C9991" fill-opacity="0.8"/>
<path d="M206.464 144.864C208.8 144.864 210.52 145.288 211.624 146.136C212.744 146.984 213.305 148.272 213.305 150C213.305 150.784 213.152 151.472 212.848 152.064C212.561 152.64 212.169 153.136 211.673 153.552C211.193 153.952 210.673 154.28 210.113 154.536L215.152 162H211.12L207.04 155.424H205.096V162H201.473V144.864H206.464ZM206.201 147.84H205.096V152.472H206.273C207.473 152.472 208.329 152.272 208.84 151.872C209.368 151.472 209.633 150.88 209.633 150.096C209.633 149.28 209.352 148.704 208.792 148.368C208.248 148.016 207.385 147.84 206.201 147.84Z" fill="#5C9991" fill-opacity="0.8"/>
<path d="M223.551 162V144.864H227.175V159H234.135V162H223.551Z" fill="#5C9991" fill-opacity="0.8"/>
<path d="M246.985 162H237.121V144.864H246.985V147.84H240.745V151.608H246.553V154.584H240.745V159H246.985V162Z" fill="#5C9991" fill-opacity="0.8"/>
</g>
<defs>
<filter id="filter0_d" x="0" y="0" width="289" height="289" filterUnits="userSpaceOnUse" color-interpolation-filters="sRGB">
<feFlood flood-opacity="0" result="BackgroundImageFix"/>
<feColorMatrix in="SourceAlpha" type="matrix" values="0 0 0 0 0 0 0 0 0 0 0 0 0 0 0 0 0 0 127 0"/>
<feOffset dx="4" dy="4"/>
<feGaussianBlur stdDeviation="2"/>
<feColorMatrix type="matrix" values="0 0 0 0 0 0 0 0 0 0 0 0 0 0 0 0 0 0 0.25 0"/>
<feBlend mode="normal" in2="BackgroundImageFix" result="effect1_dropShadow"/>
<feBlend mode="normal" in="SourceGraphic" in2="effect1_dropShadow" result="shape"/>
</filter>
</defs>
</svg>
