<svg width="590" height="504" viewBox="0 0 590 504" fill="none" xmlns="http://www.w3.org/2000/svg">
<path fill-rule="evenodd" clip-rule="evenodd" d="M503.82 0H0V504H503.82V0ZM472.331 31.5H31.4888V472.5H472.331V31.5Z" fill="#99C2BC"/>
<path d="M71.0444 100.85C77.4684 100.85 82.1984 102.016 85.2344 104.348C88.3144 106.68 89.8544 110.222 89.8544 114.974C89.8544 117.13 89.4364 119.022 88.6004 120.65C87.8084 122.234 86.7304 123.598 85.3664 124.742C84.0464 125.842 82.6164 126.744 81.0764 127.448L94.9364 147.974H83.8484L72.6284 129.89H67.2824V147.974H57.3164V100.85H71.0444ZM70.3184 109.034H67.2824V121.772H70.5164C73.8164 121.772 76.1704 121.222 77.5784 120.122C79.0304 119.022 79.7564 117.394 79.7564 115.238C79.7564 112.994 78.9864 111.41 77.4464 110.486C75.9504 109.518 73.5744 109.034 70.3184 109.034ZM143.655 124.346C143.655 129.23 142.841 133.498 141.213 137.15C139.629 140.758 137.187 143.574 133.887 145.598C130.587 147.622 126.363 148.634 121.215 148.634C116.111 148.634 111.887 147.622 108.543 145.598C105.243 143.574 102.779 140.736 101.151 137.084C99.5667 133.432 98.7747 129.164 98.7747 124.28C98.7747 119.396 99.5667 115.15 101.151 111.542C102.779 107.934 105.243 105.14 108.543 103.16C111.887 101.136 116.133 100.124 121.281 100.124C126.385 100.124 130.587 101.136 133.887 103.16C137.187 105.14 139.629 107.956 141.213 111.608C142.841 115.216 143.655 119.462 143.655 124.346ZM109.269 124.346C109.269 129.274 110.215 133.168 112.107 136.028C113.999 138.844 117.035 140.252 121.215 140.252C125.483 140.252 128.541 138.844 130.389 136.028C132.237 133.168 133.161 129.274 133.161 124.346C133.161 119.374 132.237 115.48 130.389 112.664C128.541 109.848 125.505 108.44 121.281 108.44C117.057 108.44 113.999 109.848 112.107 112.664C110.215 115.48 109.269 119.374 109.269 124.346ZM167.423 120.254L177.257 100.85H188.015L172.373 129.626V147.974H162.473V129.956L146.831 100.85H157.655L167.423 120.254ZM218.867 147.974L215.435 136.754H198.275L194.843 147.974H184.085L200.717 100.652H212.927L229.625 147.974H218.867ZM209.627 117.416C209.407 116.668 209.121 115.722 208.769 114.578C208.417 113.434 208.065 112.268 207.713 111.08C207.361 109.892 207.075 108.858 206.855 107.978C206.635 108.858 206.327 109.958 205.931 111.278C205.579 112.554 205.227 113.786 204.875 114.974C204.567 116.118 204.325 116.932 204.149 117.416L200.783 128.372H213.059L209.627 117.416ZM235.594 147.974V100.85H245.56V139.724H264.7V147.974H235.594ZM327.017 100.85L310.979 147.974H300.089L284.117 100.85H294.215L303.059 128.9C303.235 129.384 303.477 130.286 303.785 131.606C304.137 132.882 304.489 134.246 304.841 135.698C305.193 137.106 305.435 138.294 305.567 139.262C305.699 138.294 305.919 137.106 306.227 135.698C306.579 134.246 306.931 132.882 307.283 131.606C307.635 130.286 307.877 129.384 308.009 128.9L316.919 100.85H327.017ZM350.604 147.974H329.154V142.298L334.896 139.658V109.166L329.154 106.526V100.85H350.604V106.526L344.862 109.166V139.658L350.604 142.298V147.974ZM378.633 108.506C374.805 108.506 371.879 109.936 369.855 112.796C367.831 115.656 366.819 119.572 366.819 124.544C366.819 129.56 367.743 133.454 369.591 136.226C371.483 138.954 374.497 140.318 378.633 140.318C380.569 140.318 382.483 140.098 384.375 139.658C386.311 139.218 388.401 138.602 390.645 137.81V146.192C388.577 147.028 386.531 147.644 384.507 148.04C382.483 148.436 380.217 148.634 377.709 148.634C372.869 148.634 368.865 147.644 365.697 145.664C362.573 143.64 360.263 140.824 358.767 137.216C357.271 133.564 356.523 129.318 356.523 124.478C356.523 119.726 357.381 115.524 359.097 111.872C360.813 108.22 363.299 105.36 366.555 103.292C369.855 101.224 373.881 100.19 378.633 100.19C380.965 100.19 383.297 100.498 385.629 101.114C388.005 101.686 390.271 102.478 392.427 103.49L389.193 111.608C387.433 110.772 385.651 110.046 383.847 109.43C382.087 108.814 380.349 108.506 378.633 108.506ZM67.1504 237.974H57.3164V190.85H84.3104V199.034H67.1504V211.178H83.1224V219.362H67.1504V237.974ZM136.307 214.346C136.307 219.23 135.493 223.498 133.865 227.15C132.281 230.758 129.839 233.574 126.539 235.598C123.239 237.622 119.015 238.634 113.867 238.634C108.763 238.634 104.539 237.622 101.195 235.598C97.8951 233.574 95.4311 230.736 93.8031 227.084C92.2191 223.432 91.4271 219.164 91.4271 214.28C91.4271 209.396 92.2191 205.15 93.8031 201.542C95.4311 197.934 97.8951 195.14 101.195 193.16C104.539 191.136 108.785 190.124 113.933 190.124C119.037 190.124 123.239 191.136 126.539 193.16C129.839 195.14 132.281 197.956 133.865 201.608C135.493 205.216 136.307 209.462 136.307 214.346ZM101.921 214.346C101.921 219.274 102.867 223.168 104.759 226.028C106.651 228.844 109.687 230.252 113.867 230.252C118.135 230.252 121.193 228.844 123.041 226.028C124.889 223.168 125.813 219.274 125.813 214.346C125.813 209.374 124.889 205.48 123.041 202.664C121.193 199.848 118.157 198.44 113.933 198.44C109.709 198.44 106.651 199.848 104.759 202.664C102.867 205.48 101.921 209.374 101.921 214.346ZM159.796 190.85C166.22 190.85 170.95 192.016 173.986 194.348C177.066 196.68 178.606 200.222 178.606 204.974C178.606 207.13 178.188 209.022 177.352 210.65C176.56 212.234 175.482 213.598 174.118 214.742C172.798 215.842 171.368 216.744 169.828 217.448L183.688 237.974H172.6L161.38 219.89H156.034V237.974H146.068V190.85H159.796ZM159.07 199.034H156.034V211.772H159.268C162.568 211.772 164.922 211.222 166.33 210.122C167.782 209.022 168.508 207.394 168.508 205.238C168.508 202.994 167.738 201.41 166.198 200.486C164.702 199.518 162.326 199.034 159.07 199.034ZM224.933 237.974H214.967V199.166H202.163V190.85H237.737V199.166H224.933V237.974ZM283.614 237.974H273.648V217.646H254.97V237.974H245.004V190.85H254.97V209.33H273.648V190.85H283.614V237.974ZM322.597 237.974H295.471V190.85H322.597V199.034H305.437V209.396H321.409V217.58H305.437V229.724H322.597V237.974ZM72.3644 280.85C78.4364 280.85 82.8584 282.17 85.6304 284.81C88.4464 287.406 89.8544 290.992 89.8544 295.568C89.8544 298.296 89.2824 300.87 88.1384 303.29C86.9944 305.666 85.0804 307.58 82.3964 309.032C79.7564 310.484 76.1484 311.21 71.5724 311.21H67.2824V327.974H57.3164V280.85H72.3644ZM71.8364 289.034H67.2824V303.026H70.5824C73.3984 303.026 75.6204 302.476 77.2484 301.376C78.9204 300.232 79.7564 298.406 79.7564 295.898C79.7564 291.322 77.1164 289.034 71.8364 289.034ZM137.106 311.342C137.106 314.598 136.38 317.546 134.928 320.186C133.52 322.782 131.364 324.85 128.46 326.39C125.6 327.886 121.97 328.634 117.57 328.634C111.322 328.634 106.57 327.05 103.314 323.882C100.058 320.67 98.4298 316.446 98.4298 311.21V280.85H108.396V309.692C108.396 313.564 109.188 316.292 110.772 317.876C112.356 319.46 114.71 320.252 117.834 320.252C121.09 320.252 123.444 319.394 124.896 317.678C126.392 315.962 127.14 313.278 127.14 309.626V280.85H137.106V311.342ZM163.298 280.85C169.59 280.85 174.342 281.73 177.554 283.49C180.766 285.25 182.372 288.352 182.372 292.796C182.372 295.48 181.734 297.746 180.458 299.594C179.226 301.442 177.444 302.564 175.112 302.96V303.29C176.696 303.598 178.126 304.148 179.402 304.94C180.678 305.732 181.69 306.876 182.438 308.372C183.186 309.868 183.56 311.848 183.56 314.312C183.56 318.58 182.02 321.924 178.94 324.344C175.86 326.764 171.636 327.974 166.268 327.974H148.646V280.85H163.298ZM164.42 299.528C167.324 299.528 169.326 299.066 170.426 298.142C171.57 297.218 172.142 295.876 172.142 294.116C172.142 292.312 171.482 291.014 170.162 290.222C168.842 289.43 166.752 289.034 163.892 289.034H158.612V299.528H164.42ZM158.612 307.448V319.724H165.146C168.138 319.724 170.228 319.152 171.416 318.008C172.604 316.82 173.198 315.258 173.198 313.322C173.198 311.562 172.582 310.154 171.35 309.098C170.162 307.998 167.984 307.448 164.816 307.448H158.612ZM192.99 327.974V280.85H202.956V319.724H222.096V327.974H192.99ZM247.931 327.974H226.481V322.298L232.223 319.658V289.166L226.481 286.526V280.85H247.931V286.526L242.189 289.166V319.658L247.931 322.298V327.974ZM275.959 288.506C272.131 288.506 269.205 289.936 267.181 292.796C265.157 295.656 264.145 299.572 264.145 304.544C264.145 309.56 265.069 313.454 266.917 316.226C268.809 318.954 271.823 320.318 275.959 320.318C277.895 320.318 279.809 320.098 281.701 319.658C283.637 319.218 285.727 318.602 287.971 317.81V326.192C285.903 327.028 283.857 327.644 281.833 328.04C279.809 328.436 277.543 328.634 275.035 328.634C270.195 328.634 266.191 327.644 263.023 325.664C259.899 323.64 257.589 320.824 256.093 317.216C254.597 313.564 253.849 309.318 253.849 304.478C253.849 299.726 254.707 295.524 256.423 291.872C258.139 288.22 260.625 285.36 263.881 283.292C267.181 281.224 271.207 280.19 275.959 280.19C278.291 280.19 280.623 280.498 282.955 281.114C285.331 281.686 287.597 282.478 289.753 283.49L286.519 291.608C284.759 290.772 282.977 290.046 281.173 289.43C279.413 288.814 277.675 288.506 275.959 288.506ZM77.3144 378.506C73.4864 378.506 70.5604 379.936 68.5364 382.796C66.5124 385.656 65.5004 389.572 65.5004 394.544C65.5004 399.56 66.4244 403.454 68.2724 406.226C70.1644 408.954 73.1784 410.318 77.3144 410.318C79.2504 410.318 81.1644 410.098 83.0564 409.658C84.9924 409.218 87.0824 408.602 89.3264 407.81V416.192C87.2584 417.028 85.2124 417.644 83.1884 418.04C81.1644 418.436 78.8984 418.634 76.3904 418.634C71.5504 418.634 67.5464 417.644 64.3784 415.664C61.2544 413.64 58.9444 410.824 57.4484 407.216C55.9524 403.564 55.2044 399.318 55.2044 394.478C55.2044 389.726 56.0624 385.524 57.7784 381.872C59.4944 378.22 61.9804 375.36 65.2364 373.292C68.5364 371.224 72.5624 370.19 77.3144 370.19C79.6464 370.19 81.9784 370.498 84.3104 371.114C86.6864 371.686 88.9524 372.478 91.1084 373.49L87.8744 381.608C86.1144 380.772 84.3324 380.046 82.5284 379.43C80.7684 378.814 79.0304 378.506 77.3144 378.506ZM140.819 394.346C140.819 399.23 140.005 403.498 138.377 407.15C136.793 410.758 134.351 413.574 131.051 415.598C127.751 417.622 123.527 418.634 118.379 418.634C113.275 418.634 109.051 417.622 105.707 415.598C102.407 413.574 99.9428 410.736 98.3148 407.084C96.7308 403.432 95.9388 399.164 95.9388 394.28C95.9388 389.396 96.7308 385.15 98.3148 381.542C99.9428 377.934 102.407 375.14 105.707 373.16C109.051 371.136 113.297 370.124 118.445 370.124C123.549 370.124 127.751 371.136 131.051 373.16C134.351 375.14 136.793 377.956 138.377 381.608C140.005 385.216 140.819 389.462 140.819 394.346ZM106.433 394.346C106.433 399.274 107.379 403.168 109.271 406.028C111.163 408.844 114.199 410.252 118.379 410.252C122.647 410.252 125.705 408.844 127.553 406.028C129.401 403.168 130.325 399.274 130.325 394.346C130.325 389.374 129.401 385.48 127.553 382.664C125.705 379.848 122.669 378.44 118.445 378.44C114.221 378.44 111.163 379.848 109.271 382.664C107.379 385.48 106.433 389.374 106.433 394.346ZM178.133 417.974L174.701 406.754H157.541L154.109 417.974H143.351L159.983 370.652H172.193L188.891 417.974H178.133ZM168.893 387.416C168.673 386.668 168.387 385.722 168.035 384.578C167.683 383.434 167.331 382.268 166.979 381.08C166.627 379.892 166.341 378.858 166.121 377.978C165.901 378.858 165.593 379.958 165.197 381.278C164.845 382.554 164.493 383.786 164.141 384.974C163.833 386.118 163.591 386.932 163.415 387.416L160.049 398.372H172.325L168.893 387.416ZM194.859 417.974V370.85H204.825V409.724H223.965V417.974H194.859ZM249.8 417.974H228.35V412.298L234.092 409.658V379.166L228.35 376.526V370.85H249.8V376.526L244.058 379.166V409.658L249.8 412.298V417.974ZM275.98 417.974H266.014V379.166H253.21V370.85H288.784V379.166H275.98V417.974ZM313.673 417.974H292.223V412.298L297.965 409.658V379.166L292.223 376.526V370.85H313.673V376.526L307.931 379.166V409.658L313.673 412.298V417.974ZM364.471 394.346C364.471 399.23 363.657 403.498 362.029 407.15C360.445 410.758 358.003 413.574 354.703 415.598C351.403 417.622 347.179 418.634 342.031 418.634C336.927 418.634 332.703 417.622 329.359 415.598C326.059 413.574 323.595 410.736 321.967 407.084C320.383 403.432 319.591 399.164 319.591 394.28C319.591 389.396 320.383 385.15 321.967 381.542C323.595 377.934 326.059 375.14 329.359 373.16C332.703 371.136 336.949 370.124 342.097 370.124C347.201 370.124 351.403 371.136 354.703 373.16C358.003 375.14 360.445 377.956 362.029 381.608C363.657 385.216 364.471 389.462 364.471 394.346ZM330.085 394.346C330.085 399.274 331.031 403.168 332.923 406.028C334.815 408.844 337.851 410.252 342.031 410.252C346.299 410.252 349.357 408.844 351.205 406.028C353.053 403.168 353.977 399.274 353.977 394.346C353.977 389.374 353.053 385.48 351.205 382.664C349.357 379.848 346.321 378.44 342.097 378.44C337.873 378.44 334.815 379.848 332.923 382.664C331.031 385.48 330.085 389.374 330.085 394.346ZM416.01 417.974H403.338L382.812 382.334H382.548C382.636 384.578 382.724 386.822 382.812 389.066C382.944 391.31 383.054 393.554 383.142 395.798V417.974H374.232V370.85H386.838L407.298 406.16H407.496C407.452 403.96 407.386 401.782 407.298 399.626C407.21 397.47 407.122 395.314 407.034 393.158V370.85H416.01V417.974Z" fill="#5C9991"/>
</svg>
