<svg width="1201" height="292" viewBox="0 0 1201 292" fill="none" xmlns="http://www.w3.org/2000/svg">
<path fill-rule="evenodd" clip-rule="evenodd" d="M281 0H0V281H281V0ZM261.768 19.2319H20.3004V260.7H261.768V19.2319Z" fill="#5C9991" fill-opacity="0.8"/>
<path d="M50.08 201.16C55.6 201.16 59.62 202.36 62.14 204.76C64.7 207.12 65.98 210.38 65.98 214.54C65.98 217.02 65.46 219.36 64.42 221.56C63.38 223.72 61.64 225.46 59.2 226.78C56.8 228.1 53.52 228.76 49.36 228.76H45.46V244H36.4V201.16H50.08ZM49.6 208.6H45.46V221.32H48.46C51.02 221.32 53.04 220.82 54.52 219.82C56.04 218.78 56.8 217.12 56.8 214.84C56.8 210.68 54.4 208.6 49.6 208.6Z" fill="#5C9991" fill-opacity="0.8"/>
<path d="M108.936 228.88C108.936 231.84 108.276 234.52 106.956 236.92C105.676 239.28 103.716 241.16 101.076 242.56C98.4758 243.92 95.1758 244.6 91.1758 244.6C85.4958 244.6 81.1758 243.16 78.2158 240.28C75.2558 237.36 73.7758 233.52 73.7758 228.76V201.16H82.8358V227.38C82.8358 230.9 83.5558 233.38 84.9958 234.82C86.4358 236.26 88.5758 236.98 91.4158 236.98C94.3758 236.98 96.5158 236.2 97.8358 234.64C99.1958 233.08 99.8758 230.64 99.8758 227.32V201.16H108.936V228.88Z" fill="#5C9991" fill-opacity="0.8"/>
<path d="M132.747 201.16C138.467 201.16 142.787 201.96 145.707 203.56C148.627 205.16 150.087 207.98 150.087 212.02C150.087 214.46 149.507 216.52 148.347 218.2C147.227 219.88 145.607 220.9 143.487 221.26V221.56C144.927 221.84 146.227 222.34 147.387 223.06C148.547 223.78 149.467 224.82 150.147 226.18C150.827 227.54 151.167 229.34 151.167 231.58C151.167 235.46 149.767 238.5 146.967 240.7C144.167 242.9 140.327 244 135.447 244H119.427V201.16H132.747ZM133.767 218.14C136.407 218.14 138.227 217.72 139.227 216.88C140.267 216.04 140.787 214.82 140.787 213.22C140.787 211.58 140.187 210.4 138.987 209.68C137.787 208.96 135.887 208.6 133.287 208.6H128.487V218.14H133.767ZM128.487 225.34V236.5H134.427C137.147 236.5 139.047 235.98 140.127 234.94C141.207 233.86 141.747 232.44 141.747 230.68C141.747 229.08 141.187 227.8 140.067 226.84C138.987 225.84 137.007 225.34 134.127 225.34H128.487Z" fill="#5C9991" fill-opacity="0.8"/>
<path d="M159.74 244V201.16H168.8V236.5H186.2V244H159.74Z" fill="#5C9991" fill-opacity="0.8"/>
<path d="M209.686 244H190.186V238.84L195.406 236.44V208.72L190.186 206.32V201.16H209.686V206.32L204.466 208.72V236.44L209.686 238.84V244Z" fill="#5C9991" fill-opacity="0.8"/>
<path d="M235.166 208.12C231.686 208.12 229.026 209.42 227.186 212.02C225.346 214.62 224.426 218.18 224.426 222.7C224.426 227.26 225.266 230.8 226.946 233.32C228.666 235.8 231.406 237.04 235.166 237.04C236.926 237.04 238.666 236.84 240.386 236.44C242.146 236.04 244.046 235.48 246.086 234.76V242.38C244.206 243.14 242.346 243.7 240.506 244.06C238.666 244.42 236.606 244.6 234.326 244.6C229.926 244.6 226.286 243.7 223.406 241.9C220.566 240.06 218.466 237.5 217.106 234.22C215.746 230.9 215.066 227.04 215.066 222.64C215.066 218.32 215.846 214.5 217.406 211.18C218.966 207.86 221.226 205.26 224.186 203.38C227.186 201.5 230.846 200.56 235.166 200.56C237.286 200.56 239.406 200.84 241.526 201.4C243.686 201.92 245.746 202.64 247.706 203.56L244.766 210.94C243.166 210.18 241.546 209.52 239.906 208.96C238.306 208.4 236.726 208.12 235.166 208.12Z" fill="#5C9991" fill-opacity="0.8"/>
<path d="M75 145.16L60.42 188H50.52L36 145.16H45.18L53.22 170.66C53.38 171.1 53.6 171.92 53.88 173.12C54.2 174.28 54.52 175.52 54.84 176.84C55.16 178.12 55.38 179.2 55.5 180.08C55.62 179.2 55.82 178.12 56.1 176.84C56.42 175.52 56.74 174.28 57.06 173.12C57.38 171.92 57.6 171.1 57.72 170.66L65.82 145.16H75Z" fill="#5C9991" fill-opacity="0.8"/>
<path d="M96.4434 188H76.9434V182.84L82.1634 180.44V152.72L76.9434 150.32V145.16H96.4434V150.32L91.2234 152.72V180.44L96.4434 182.84V188Z" fill="#5C9991" fill-opacity="0.8"/>
<path d="M121.924 152.12C118.444 152.12 115.784 153.42 113.944 156.02C112.104 158.62 111.184 162.18 111.184 166.7C111.184 171.26 112.024 174.8 113.704 177.32C115.424 179.8 118.164 181.04 121.924 181.04C123.684 181.04 125.424 180.84 127.144 180.44C128.904 180.04 130.804 179.48 132.844 178.76V186.38C130.964 187.14 129.104 187.7 127.264 188.06C125.424 188.42 123.364 188.6 121.084 188.6C116.684 188.6 113.044 187.7 110.164 185.9C107.324 184.06 105.224 181.5 103.864 178.22C102.504 174.9 101.824 171.04 101.824 166.64C101.824 162.32 102.604 158.5 104.164 155.18C105.724 151.86 107.984 149.26 110.944 147.38C113.944 145.5 117.604 144.56 121.924 144.56C124.044 144.56 126.164 144.84 128.284 145.4C130.444 145.92 132.504 146.64 134.464 147.56L131.524 154.94C129.924 154.18 128.304 153.52 126.664 152.96C125.064 152.4 123.484 152.12 121.924 152.12Z" fill="#5C9991" fill-opacity="0.8"/>
<path d="M48.88 88.16C54.72 88.16 59.02 89.22 61.78 91.34C64.58 93.46 65.98 96.68 65.98 101C65.98 102.96 65.6 104.68 64.84 106.16C64.12 107.6 63.14 108.84 61.9 109.88C60.7 110.88 59.4 111.7 58 112.34L70.6 131H60.52L50.32 114.56H45.46V131H36.4V88.16H48.88ZM48.22 95.6H45.46V107.18H48.4C51.4 107.18 53.54 106.68 54.82 105.68C56.14 104.68 56.8 103.2 56.8 101.24C56.8 99.2 56.1 97.76 54.7 96.92C53.34 96.04 51.18 95.6 48.22 95.6Z" fill="#5C9991" fill-opacity="0.8"/>
<path d="M114.889 109.52C114.889 113.96 114.149 117.84 112.669 121.16C111.229 124.44 109.009 127 106.009 128.84C103.009 130.68 99.1694 131.6 94.4894 131.6C89.8494 131.6 86.0094 130.68 82.9694 128.84C79.9694 127 77.7294 124.42 76.2494 121.1C74.8094 117.78 74.0894 113.9 74.0894 109.46C74.0894 105.02 74.8094 101.16 76.2494 97.88C77.7294 94.6 79.9694 92.06 82.9694 90.26C86.0094 88.42 89.8694 87.5 94.5494 87.5C99.1894 87.5 103.009 88.42 106.009 90.26C109.009 92.06 111.229 94.62 112.669 97.94C114.149 101.22 114.889 105.08 114.889 109.52ZM83.6294 109.52C83.6294 114 84.4894 117.54 86.2094 120.14C87.9294 122.7 90.6894 123.98 94.4894 123.98C98.3694 123.98 101.149 122.7 102.829 120.14C104.509 117.54 105.349 114 105.349 109.52C105.349 105 104.509 101.46 102.829 98.9C101.149 96.34 98.3894 95.06 94.5494 95.06C90.7094 95.06 87.9294 96.34 86.2094 98.9C84.4894 101.46 83.6294 105 83.6294 109.52Z" fill="#5C9991" fill-opacity="0.8"/>
<path d="M136.497 105.8L145.437 88.16H155.217L140.997 114.32V131H131.997V114.62L117.777 88.16H127.617L136.497 105.8Z" fill="#5C9991" fill-opacity="0.8"/>
<path d="M183.265 131L180.145 120.8H164.545L161.425 131H151.645L166.765 87.98H177.865L193.045 131H183.265ZM174.865 103.22C174.665 102.54 174.405 101.68 174.085 100.64C173.765 99.6 173.445 98.54 173.125 97.46C172.805 96.38 172.545 95.44 172.345 94.64C172.145 95.44 171.865 96.44 171.505 97.64C171.185 98.8 170.865 99.92 170.545 101C170.265 102.04 170.045 102.78 169.885 103.22L166.825 113.18H177.985L174.865 103.22Z" fill="#5C9991" fill-opacity="0.8"/>
<path d="M198.47 131V88.16H207.53V123.5H224.93V131H198.47Z" fill="#5C9991" fill-opacity="0.8"/>
<path d="M152.736 188H149.16V170.864H158.976V173.84H152.736V178.256H158.544V181.232H152.736V188Z" fill="#5C9991" fill-opacity="0.8"/>
<path d="M177.884 179.408C177.884 181.184 177.588 182.736 176.996 184.064C176.42 185.376 175.532 186.4 174.332 187.136C173.132 187.872 171.596 188.24 169.724 188.24C167.868 188.24 166.332 187.872 165.116 187.136C163.916 186.4 163.02 185.368 162.428 184.04C161.852 182.712 161.564 181.16 161.564 179.384C161.564 177.608 161.852 176.064 162.428 174.752C163.02 173.44 163.916 172.424 165.116 171.704C166.332 170.968 167.876 170.6 169.748 170.6C171.604 170.6 173.132 170.968 174.332 171.704C175.532 172.424 176.42 173.448 176.996 174.776C177.588 176.088 177.884 177.632 177.884 179.408ZM165.38 179.408C165.38 181.2 165.724 182.616 166.412 183.656C167.1 184.68 168.204 185.192 169.724 185.192C171.276 185.192 172.388 184.68 173.06 183.656C173.732 182.616 174.068 181.2 174.068 179.408C174.068 177.6 173.732 176.184 173.06 175.16C172.388 174.136 171.284 173.624 169.748 173.624C168.212 173.624 167.1 174.136 166.412 175.16C165.724 176.184 165.38 177.6 165.38 179.408Z" fill="#5C9991" fill-opacity="0.8"/>
<path d="M186.425 170.864C188.761 170.864 190.481 171.288 191.585 172.136C192.705 172.984 193.265 174.272 193.265 176C193.265 176.784 193.113 177.472 192.809 178.064C192.521 178.64 192.129 179.136 191.633 179.552C191.153 179.952 190.633 180.28 190.073 180.536L195.113 188H191.081L187.001 181.424H185.057V188H181.433V170.864H186.425ZM186.161 173.84H185.057V178.472H186.233C187.433 178.472 188.289 178.272 188.801 177.872C189.329 177.472 189.593 176.88 189.593 176.096C189.593 175.28 189.313 174.704 188.753 174.368C188.209 174.016 187.345 173.84 186.161 173.84Z" fill="#5C9991" fill-opacity="0.8"/>
<path d="M210.112 188H206.488V173.888H201.832V170.864H214.768V173.888H210.112V188Z" fill="#5C9991" fill-opacity="0.8"/>
<path d="M231.45 188H227.826V180.608H221.034V188H217.41V170.864H221.034V177.584H227.826V170.864H231.45V188Z" fill="#5C9991" fill-opacity="0.8"/>
<path d="M245.626 188H235.762V170.864H245.626V173.84H239.386V177.608H245.194V180.584H239.386V185H245.626V188Z" fill="#5C9991" fill-opacity="0.8"/>
<path d="M154.632 144.864C156.84 144.864 158.448 145.344 159.456 146.304C160.48 147.248 160.992 148.552 160.992 150.216C160.992 151.208 160.784 152.144 160.368 153.024C159.952 153.888 159.256 154.584 158.28 155.112C157.32 155.64 156.008 155.904 154.344 155.904H152.784V162H149.16V144.864H154.632ZM154.44 147.84H152.784V152.928H153.984C155.008 152.928 155.816 152.728 156.408 152.328C157.016 151.912 157.32 151.248 157.32 150.336C157.32 148.672 156.36 147.84 154.44 147.84Z" fill="#5C9991" fill-opacity="0.8"/>
<path d="M179.782 153.408C179.782 155.184 179.486 156.736 178.894 158.064C178.318 159.376 177.43 160.4 176.23 161.136C175.03 161.872 173.494 162.24 171.622 162.24C169.766 162.24 168.23 161.872 167.014 161.136C165.814 160.4 164.918 159.368 164.326 158.04C163.75 156.712 163.462 155.16 163.462 153.384C163.462 151.608 163.75 150.064 164.326 148.752C164.918 147.44 165.814 146.424 167.014 145.704C168.23 144.968 169.774 144.6 171.646 144.6C173.502 144.6 175.03 144.968 176.23 145.704C177.43 146.424 178.318 147.448 178.894 148.776C179.486 150.088 179.782 151.632 179.782 153.408ZM167.278 153.408C167.278 155.2 167.622 156.616 168.31 157.656C168.998 158.68 170.102 159.192 171.622 159.192C173.174 159.192 174.286 158.68 174.958 157.656C175.63 156.616 175.966 155.2 175.966 153.408C175.966 151.6 175.63 150.184 174.958 149.16C174.286 148.136 173.182 147.624 171.646 147.624C170.11 147.624 168.998 148.136 168.31 149.16C167.622 150.184 167.278 151.6 167.278 153.408Z" fill="#5C9991" fill-opacity="0.8"/>
<path d="M197.276 155.952C197.276 157.136 197.012 158.208 196.484 159.168C195.972 160.112 195.188 160.864 194.132 161.424C193.092 161.968 191.772 162.24 190.172 162.24C187.9 162.24 186.172 161.664 184.988 160.512C183.804 159.344 183.212 157.808 183.212 155.904V144.864H186.836V155.352C186.836 156.76 187.124 157.752 187.7 158.328C188.276 158.904 189.132 159.192 190.268 159.192C191.452 159.192 192.308 158.88 192.836 158.256C193.38 157.632 193.652 156.656 193.652 155.328V144.864H197.276V155.952Z" fill="#5C9991" fill-opacity="0.8"/>
<path d="M206.464 144.864C208.8 144.864 210.52 145.288 211.624 146.136C212.744 146.984 213.305 148.272 213.305 150C213.305 150.784 213.152 151.472 212.848 152.064C212.561 152.64 212.169 153.136 211.673 153.552C211.193 153.952 210.673 154.28 210.113 154.536L215.152 162H211.12L207.04 155.424H205.096V162H201.473V144.864H206.464ZM206.201 147.84H205.096V152.472H206.273C207.473 152.472 208.329 152.272 208.84 151.872C209.368 151.472 209.633 150.88 209.633 150.096C209.633 149.28 209.352 148.704 208.792 148.368C208.248 148.016 207.385 147.84 206.201 147.84Z" fill="#5C9991" fill-opacity="0.8"/>
<path d="M223.551 162V144.864H227.175V159H234.135V162H223.551Z" fill="#5C9991" fill-opacity="0.8"/>
<path d="M246.985 162H237.121V144.864H246.985V147.84H240.745V151.608H246.553V154.584H240.745V159H246.985V162Z" fill="#5C9991" fill-opacity="0.8"/>
<path d="M349.752 83.168C366.648 83.168 375.096 89.416 375.096 101.912C375.096 105.96 374.011 109.363 371.84 112.12C369.728 114.877 367.059 117.048 363.832 118.632L382.224 146H365.416L351.248 122.416H345.352V146H330.392V83.168H349.752ZM349.136 94.96H345.352V110.712H349.136C352.715 110.712 355.384 110.067 357.144 108.776C358.963 107.427 359.872 105.315 359.872 102.44C359.872 99.9173 359.021 98.04 357.32 96.808C355.619 95.576 352.891 94.96 349.136 94.96ZM444.025 115.928C444.025 122.144 443.017 127.576 441.001 132.224C438.985 136.816 435.849 140.4 431.593 142.976C427.337 145.552 421.877 146.84 415.213 146.84C408.605 146.84 403.173 145.552 398.917 142.976C394.661 140.4 391.497 136.788 389.425 132.14C387.409 127.492 386.401 122.06 386.401 115.844C386.401 109.628 387.409 104.224 389.425 99.632C391.497 95.04 394.661 91.484 398.917 88.964C403.173 86.388 408.633 85.1 415.297 85.1C421.961 85.1 427.393 86.388 431.593 88.964C435.849 91.484 438.985 95.068 441.001 99.716C443.017 104.308 444.025 109.712 444.025 115.928ZM401.437 115.928C401.437 121.808 402.501 126.428 404.629 129.788C406.813 133.148 410.341 134.828 415.213 134.828C420.197 134.828 423.725 133.148 425.797 129.788C427.925 126.428 428.989 121.808 428.989 115.928C428.989 110.048 427.925 105.428 425.797 102.068C423.725 98.652 420.225 96.944 415.297 96.944C410.369 96.944 406.813 98.652 404.629 102.068C402.501 105.428 401.437 110.048 401.437 115.928ZM474.78 109.628L486.288 86.024H501.744L481.92 122.648V146H467.64V123.068L447.816 86.024H463.356L474.78 109.628ZM540.471 146L536.775 133.148H516.027L512.331 146H496.707L517.119 85.772H535.431L556.095 146H540.471ZM530.055 109.208C529.775 108.2 529.383 106.856 528.879 105.176C528.431 103.44 527.955 101.676 527.451 99.884C527.003 98.092 526.639 96.58 526.359 95.348C526.135 96.58 525.771 98.12 525.267 99.968C524.819 101.76 524.371 103.524 523.923 105.26C523.475 106.94 523.111 108.256 522.831 109.208L519.303 121.22H533.583L530.055 109.208ZM563.154 146V86.024H577.434V134.324H601.206V146H563.154ZM685.03 83.168L663.998 146H647.014L626.07 83.168H642.174L652.382 118.016C652.676 118.896 653.028 120.245 653.438 122.064C653.908 123.824 654.348 125.672 654.758 127.608C655.169 129.485 655.433 131.04 655.55 132.272C655.726 131.04 655.99 129.485 656.342 127.608C656.753 125.731 657.164 123.912 657.574 122.152C657.985 120.333 658.337 118.984 658.63 118.104L669.014 83.168H685.03ZM716.943 146H687.795V137.852L695.187 134.744V97.28L687.795 94.172V86.024H716.943V94.172L709.551 97.28V134.744L716.943 137.852V146ZM752.819 97.028C748.451 97.028 745.063 98.736 742.655 102.152C740.247 105.568 739.043 110.244 739.043 116.18C739.043 122.284 740.191 126.96 742.487 130.208C744.783 133.4 748.367 134.996 753.239 134.996C755.759 134.996 758.251 134.688 760.715 134.072C763.179 133.4 765.783 132.56 768.527 131.552V143.648C765.839 144.768 763.151 145.58 760.463 146.084C757.831 146.588 754.947 146.84 751.811 146.84C745.427 146.84 740.219 145.552 736.187 142.976C732.155 140.4 729.159 136.816 727.199 132.224C725.295 127.632 724.343 122.256 724.343 116.096C724.343 110.048 725.435 104.7 727.619 100.052C729.803 95.404 733.023 91.764 737.279 89.132C741.535 86.5 746.743 85.184 752.903 85.184C755.815 85.184 758.811 85.548 761.891 86.276C765.027 86.948 768.023 87.984 770.879 89.384L766.427 100.808C764.187 99.8 761.947 98.932 759.707 98.204C757.467 97.42 755.171 97.028 752.819 97.028ZM816.688 146H802.576V86.024H837.436V97.616H816.688V111.224H835.924V122.816H816.688V146ZM903.455 115.928C903.455 122.144 902.447 127.576 900.431 132.224C898.415 136.816 895.279 140.4 891.023 142.976C886.767 145.552 881.307 146.84 874.643 146.84C868.035 146.84 862.603 145.552 858.347 142.976C854.091 140.4 850.927 136.788 848.855 132.14C846.839 127.492 845.831 122.06 845.831 115.844C845.831 109.628 846.839 104.224 848.855 99.632C850.927 95.04 854.091 91.484 858.347 88.964C862.603 86.388 868.063 85.1 874.727 85.1C881.391 85.1 886.823 86.388 891.023 88.964C895.279 91.484 898.415 95.068 900.431 99.716C902.447 104.308 903.455 109.712 903.455 115.928ZM860.867 115.928C860.867 121.808 861.931 126.428 864.059 129.788C866.243 133.148 869.771 134.828 874.643 134.828C879.627 134.828 883.155 133.148 885.227 129.788C887.355 126.428 888.419 121.808 888.419 115.928C888.419 110.048 887.355 105.428 885.227 102.068C883.155 98.652 879.655 96.944 874.727 96.944C869.799 96.944 866.243 98.652 864.059 102.068C861.931 105.428 860.867 110.048 860.867 115.928ZM933.602 86.024C949.73 86.024 957.794 91.988 957.794 103.916C957.794 107.78 956.758 111.028 954.686 113.66C952.67 116.292 950.122 118.364 947.042 119.876L964.598 146H948.554L935.03 123.488H929.402V146H915.122V86.024H933.602ZM933.014 97.28H929.402V112.316H933.014C936.43 112.316 938.978 111.7 940.658 110.468C942.394 109.18 943.262 107.164 943.262 104.42C943.262 102.012 942.45 100.22 940.826 99.044C939.202 97.868 936.598 97.28 933.014 97.28ZM1017.66 146H1003.38V97.868H987.844V86.024H1033.2V97.868H1017.66V146ZM1092.34 146H1078.06V120.8H1056.55V146H1042.19V86.024H1056.55V108.956H1078.06V86.024H1092.34V146ZM1141.45 146H1106.42V86.024H1141.45V97.616H1120.7V109.124H1139.94V120.716H1120.7V134.24H1141.45V146ZM351.248 203.168C359.285 203.168 365.211 204.928 369.024 208.448C372.896 211.909 374.832 216.749 374.832 222.968C374.832 226.664 374.069 230.155 372.544 233.44C371.019 236.667 368.496 239.307 364.976 241.36C361.456 243.355 356.675 244.352 350.632 244.352H345.352V266H330.392V203.168H351.248ZM350.72 215.4H345.352V232.12H349.312C352.304 232.12 354.768 231.445 356.704 230.096C358.699 228.747 359.696 226.517 359.696 223.408C359.696 220.827 358.963 218.861 357.496 217.512C356.029 216.104 353.771 215.4 350.72 215.4ZM435.298 243.572C435.298 248.164 434.346 252.196 432.442 255.668C430.594 259.14 427.794 261.884 424.042 263.9C420.346 265.86 415.642 266.84 409.93 266.84C401.866 266.84 395.706 264.768 391.45 260.624C387.194 256.48 385.066 250.824 385.066 243.656V206.024H399.43V242.06C399.43 246.652 400.326 249.928 402.118 251.888C403.966 253.848 406.682 254.828 410.266 254.828C414.018 254.828 416.734 253.82 418.414 251.804C420.15 249.732 421.018 246.456 421.018 241.976V206.024H435.298V243.572ZM468.634 206.024C476.978 206.024 483.11 207.228 487.03 209.636C490.95 212.044 492.91 215.88 492.91 221.144C492.91 224.784 491.986 227.752 490.138 230.048C488.346 232.288 486.162 233.66 483.586 234.164V234.584C485.378 234.976 487.086 235.676 488.71 236.684C490.334 237.636 491.65 239.064 492.658 240.968C493.722 242.872 494.254 245.392 494.254 248.528C494.254 254.016 492.238 258.3 488.206 261.38C484.23 264.46 478.77 266 471.826 266H448.978V206.024H468.634ZM469.558 229.46C472.75 229.46 474.99 228.9 476.278 227.78C477.566 226.604 478.21 225.036 478.21 223.076C478.21 219.212 475.13 217.28 468.97 217.28H463.258V229.46H469.558ZM463.258 240.38V254.576H470.398C473.758 254.576 476.082 253.904 477.37 252.56C478.714 251.216 479.386 249.452 479.386 247.268C479.386 245.308 478.714 243.684 477.37 242.396C476.026 241.052 473.59 240.38 470.062 240.38H463.258ZM505.497 266V206.024H519.777V254.324H543.549V266H505.497ZM578.514 266H549.366V257.852L556.758 254.744V217.28L549.366 214.172V206.024H578.514V214.172L571.122 217.28V254.744L578.514 257.852V266ZM614.389 217.028C610.021 217.028 606.633 218.736 604.225 222.152C601.817 225.568 600.613 230.244 600.613 236.18C600.613 242.284 601.761 246.96 604.057 250.208C606.353 253.4 609.937 254.996 614.809 254.996C617.329 254.996 619.821 254.688 622.285 254.072C624.749 253.4 627.353 252.56 630.097 251.552V263.648C627.409 264.768 624.721 265.58 622.033 266.084C619.401 266.588 616.517 266.84 613.381 266.84C606.997 266.84 601.789 265.552 597.757 262.976C593.725 260.4 590.729 256.816 588.769 252.224C586.865 247.632 585.913 242.256 585.913 236.096C585.913 230.048 587.005 224.7 589.189 220.052C591.373 215.404 594.593 211.764 598.849 209.132C603.105 206.5 608.313 205.184 614.473 205.184C617.385 205.184 620.381 205.548 623.461 206.276C626.597 206.948 629.593 207.984 632.449 209.384L627.997 220.808C625.757 219.8 623.517 218.932 621.277 218.204C619.037 217.42 616.741 217.028 614.389 217.028ZM691.762 214.696C687.186 214.696 683.637 216.485 681.114 220.064C678.591 223.643 677.33 228.541 677.33 234.76C677.33 241.155 678.533 246.053 680.938 249.456C683.343 252.8 687.098 254.472 692.202 254.472C694.842 254.472 697.453 254.149 700.034 253.504C702.615 252.8 705.343 251.92 708.218 250.864V263.536C705.402 264.709 702.586 265.56 699.77 266.088C697.013 266.616 693.991 266.88 690.706 266.88C684.018 266.88 678.562 265.531 674.338 262.832C670.114 260.133 666.975 256.379 664.922 251.568C662.927 246.757 661.93 241.125 661.93 234.672C661.93 228.336 663.074 222.733 665.362 217.864C667.65 212.995 671.023 209.181 675.482 206.424C679.941 203.667 685.397 202.288 691.85 202.288C694.901 202.288 698.039 202.669 701.266 203.432C704.551 204.136 707.69 205.221 710.682 206.688L706.018 218.656C703.671 217.6 701.325 216.691 698.978 215.928C696.631 215.107 694.226 214.696 691.762 214.696ZM775.881 235.928C775.881 242.144 774.873 247.576 772.857 252.224C770.841 256.816 767.705 260.4 763.449 262.976C759.193 265.552 753.733 266.84 747.069 266.84C740.461 266.84 735.029 265.552 730.773 262.976C726.517 260.4 723.353 256.788 721.281 252.14C719.265 247.492 718.257 242.06 718.257 235.844C718.257 229.628 719.265 224.224 721.281 219.632C723.353 215.04 726.517 211.484 730.773 208.964C735.029 206.388 740.489 205.1 747.153 205.1C753.817 205.1 759.249 206.388 763.449 208.964C767.705 211.484 770.841 215.068 772.857 219.716C774.873 224.308 775.881 229.712 775.881 235.928ZM733.293 235.928C733.293 241.808 734.357 246.428 736.485 249.788C738.669 253.148 742.197 254.828 747.069 254.828C752.053 254.828 755.581 253.148 757.653 249.788C759.781 246.428 760.845 241.808 760.845 235.928C760.845 230.048 759.781 225.428 757.653 222.068C755.581 218.652 752.081 216.944 747.153 216.944C742.225 216.944 738.669 218.652 736.485 222.068C734.357 225.428 733.293 230.048 733.293 235.928ZM822.616 266L818.92 253.148H798.172L794.476 266H778.852L799.264 205.772H817.576L838.24 266H822.616ZM812.2 229.208C811.92 228.2 811.528 226.856 811.024 225.176C810.576 223.44 810.1 221.676 809.596 219.884C809.148 218.092 808.784 216.58 808.504 215.348C808.28 216.58 807.916 218.12 807.412 219.968C806.964 221.76 806.516 223.524 806.068 225.26C805.62 226.94 805.256 228.256 804.976 229.208L801.448 241.22H815.728L812.2 229.208ZM845.298 266V206.024H859.578V254.324H883.35V266H845.298ZM918.315 266H889.167V257.852L896.559 254.744V217.28L889.167 214.172V206.024H918.315V214.172L910.923 217.28V254.744L918.315 257.852V266ZM952.762 266H938.482V217.868H922.942V206.024H968.302V217.868H952.762V266ZM1002.15 266H973.002V257.852L980.394 254.744V217.28L973.002 214.172V206.024H1002.15V214.172L994.758 217.28V254.744L1002.15 257.852V266ZM1067.17 235.928C1067.17 242.144 1066.17 247.576 1064.15 252.224C1062.13 256.816 1059 260.4 1054.74 262.976C1050.49 265.552 1045.03 266.84 1038.36 266.84C1031.75 266.84 1026.32 265.552 1022.07 262.976C1017.81 260.4 1014.65 256.788 1012.57 252.14C1010.56 247.492 1009.55 242.06 1009.55 235.844C1009.55 229.628 1010.56 224.224 1012.57 219.632C1014.65 215.04 1017.81 211.484 1022.07 208.964C1026.32 206.388 1031.78 205.1 1038.45 205.1C1045.11 205.1 1050.54 206.388 1054.74 208.964C1059 211.484 1062.13 215.068 1064.15 219.716C1066.17 224.308 1067.17 229.712 1067.17 235.928ZM1024.59 235.928C1024.59 241.808 1025.65 246.428 1027.78 249.788C1029.96 253.148 1033.49 254.828 1038.36 254.828C1043.35 254.828 1046.87 253.148 1048.95 249.788C1051.07 246.428 1052.14 241.808 1052.14 235.928C1052.14 230.048 1051.07 225.428 1048.95 222.068C1046.87 218.652 1043.37 216.944 1038.45 216.944C1033.52 216.944 1029.96 218.652 1027.78 222.068C1025.65 225.428 1024.59 230.048 1024.59 235.928ZM1133.86 266H1115.38L1091.19 222.068H1090.85C1090.97 224.476 1091.08 227.164 1091.19 230.132C1091.36 233.044 1091.5 235.76 1091.61 238.28V266H1078.84V206.024H1097.24L1121.35 249.452H1121.6C1121.49 247.044 1121.37 244.468 1121.26 241.724C1121.15 238.924 1121.07 236.292 1121.01 233.828V206.024H1133.86V266Z" fill="#5C9991" fill-opacity="0.9"/>
</svg>
