<svg width="1438" height="405" viewBox="0 0 1438 405" fill="none" xmlns="http://www.w3.org/2000/svg">
<path d="M0 468V347.83C0 347.83 272.42 153.399 479.567 115.502C688.79 77.2256 813.253 198.706 1023.11 163.57C1194.98 134.795 1260.83 13.8277 1434.94 1.34118C1477.01 -1.67647 1543 1.34118 1543 1.34118V468H0Z" fill="url(#paint0_radial)" fill-opacity="0.3"/>
<path d="M0 468V347.83C0 347.83 272.42 153.399 479.567 115.502C688.79 77.2256 813.253 198.706 1023.11 163.57C1194.98 134.795 1260.83 13.8277 1434.94 1.34118C1477.01 -1.67647 1543 1.34118 1543 1.34118V468H0Z" fill="url(#paint1_radial)" fill-opacity="0.6"/>
<path d="M0 468V347.83C0 347.83 272.42 153.399 479.567 115.502C688.79 77.2256 813.253 198.706 1023.11 163.57C1194.98 134.795 1260.83 13.8277 1434.94 1.34118C1477.01 -1.67647 1543 1.34118 1543 1.34118V468H0Z" fill="url(#paint2_radial)"/>
<defs>
<radialGradient id="paint0_radial" cx="0" cy="0" r="1" gradientUnits="userSpaceOnUse" gradientTransform="translate(1426.33 168.077) rotate(167.459) scale(1173.7 3380.61)">
<stop stop-color="#FFBF1F"/>
<stop offset="1" stop-color="#FFBF1F" stop-opacity="0"/>
</radialGradient>
<radialGradient id="paint1_radial" cx="0" cy="0" r="1" gradientUnits="userSpaceOnUse" gradientTransform="translate(737.629 -225.98) rotate(119.116) scale(551.351 1760.72)">
<stop stop-color="#88AAA5" stop-opacity="0"/>
<stop offset="0.303394" stop-color="#88AAA5"/>
</radialGradient>
<radialGradient id="paint2_radial" cx="0" cy="0" r="1" gradientUnits="userSpaceOnUse" gradientTransform="translate(16.6666 389.389) rotate(-26.5031) scale(729.328 2149.17)">
<stop stop-color="#99C2BC"/>
<stop offset="1" stop-color="white" stop-opacity="0"/>
</radialGradient>
</defs>
</svg>
